# MagicaVoxel @ Ephtracy

# group
o 

# material
mtllib BomberMen3.mtl
usemtl palette

# normals
vn -1 0 0
vn 1 0 0
vn 0 0 1
vn 0 0 -1
vn 0 -1 0
vn 0 1 0

# texcoords
vt 0.0214844 0.5
vt 0.0332031 0.5
vt 0.0722656 0.5
vt 0.306641 0.5
vt 0.845703 0.5
vt 0.994141 0.5

# verts
v 0.4 1.8 -0.9
v 0.4 1.8 -1
v 0.4 1.9 -0.9
v 0.4 1.9 -1
v 0.6 2 -0.6
v 0.6 2 -1.3
v 0.6 2.6 -0.6
v 0.6 2.6 -1.3
v 0.8 1 -0.9
v 0.8 1 -1
v 0.8 1.1 -0.9
v 0.8 1.1 -1
v 0.8 1.4 -0.8
v 0.8 1.4 -0.9
v 0.8 1.4 -1
v 0.8 1.4 -1.1
v 0.8 1.5 -0.8
v 0.8 1.5 -1.1
v 0.8 1.6 -0.8
v 0.8 1.6 -1.1
v 0.8 1.7 -0.8
v 0.8 1.7 -0.9
v 0.8 1.7 -1
v 0.8 1.7 -1.1
v 0.8 1.8 -0.9
v 0.8 1.8 -1
v 0.8 2.6 -0.7
v 0.8 2.6 -1
v 0.8 2.8 -0.7
v 0.8 2.8 -1
v 0.9 1.9 -0.9
v 0.9 1.9 -1
v 0.9 2 -0.9
v 0.9 2 -1
v 1 1 -0.9
v 1 1 -1
v 1 1.1 -0.9
v 1 1.1 -1
v 1 1.4 -0.9
v 1 1.4 -1
v 0.9 1 -0.9
v 0.9 1 -1
v 0.9 1.1 -0.9
v 0.9 1.1 -1
v 0.9 1.4 -0.9
v 0.9 1.4 -1
v 1 1.9 -0.9
v 1 1.9 -1
v 1 2 -0.9
v 1 2 -1
v 1.1 1 -0.9
v 1.1 1 -1
v 1.1 1.1 -0.9
v 1.1 1.1 -1
v 1.1 1.4 -0.8
v 1.1 1.4 -0.9
v 1.1 1.4 -1
v 1.1 1.4 -1.1
v 1.1 1.5 -0.8
v 1.1 1.5 -1.1
v 1.1 1.6 -0.8
v 1.1 1.6 -1.1
v 1.1 1.7 -0.8
v 1.1 1.7 -0.9
v 1.1 1.7 -1
v 1.1 1.7 -1.1
v 1.1 1.8 -0.9
v 1.1 1.8 -1
v 1.1 2.6 -0.7
v 1.1 2.6 -1
v 1.1 2.8 -0.7
v 1.1 2.8 -1
v 1.3 2 -0.6
v 1.3 2 -1.3
v 1.3 2.6 -0.6
v 1.3 2.6 -1.3
v 1.5 1.8 -0.9
v 1.5 1.8 -1
v 1.5 1.9 -0.9
v 1.5 1.9 -1
v 0.6 2 -0.6
v 0.6 2.6 -0.6
v 1.3 2 -0.6
v 1.3 2.6 -0.6
v 0.8 2.6 -0.7
v 0.8 2.8 -0.7
v 1.1 2.6 -0.7
v 1.1 2.8 -0.7
v 0.8 1.4 -0.8
v 0.8 1.5 -0.8
v 0.8 1.6 -0.8
v 0.8 1.7 -0.8
v 1.1 1.4 -0.8
v 1.1 1.5 -0.8
v 1.1 1.6 -0.8
v 1.1 1.7 -0.8
v 0.4 1.8 -0.9
v 0.4 1.9 -0.9
v 0.5 1.8 -0.9
v 0.5 1.9 -0.9
v 0.8 1 -0.9
v 0.8 1.1 -0.9
v 0.8 1.4 -0.9
v 0.8 1.7 -0.9
v 0.8 1.8 -0.9
v 0.8 1.9 -0.9
v 0.9 1 -0.9
v 0.9 1.1 -0.9
v 0.9 1.4 -0.9
v 0.9 1.9 -0.9
v 0.9 2 -0.9
v 1 1 -0.9
v 1 1.1 -0.9
v 1 1.4 -0.9
v 1 1.9 -0.9
v 1 2 -0.9
v 1.1 1 -0.9
v 1.1 1.1 -0.9
v 1.1 1.4 -0.9
v 1.1 1.7 -0.9
v 1.1 1.8 -0.9
v 1.1 1.9 -0.9
v 1.4 1.8 -0.9
v 1.4 1.9 -0.9
v 1.5 1.8 -0.9
v 1.5 1.9 -0.9
v 0.4 1.8 -1
v 0.4 1.9 -1
v 0.5 1.8 -1
v 0.5 1.9 -1
v 0.8 1 -1
v 0.8 1.1 -1
v 0.8 1.4 -1
v 0.8 1.7 -1
v 0.8 1.8 -1
v 0.8 1.9 -1
v 0.8 2.6 -1
v 0.8 2.8 -1
v 0.9 1 -1
v 0.9 1.1 -1
v 0.9 1.4 -1
v 0.9 1.9 -1
v 0.9 2 -1
v 1 1 -1
v 1 1.1 -1
v 1 1.4 -1
v 1 1.9 -1
v 1 2 -1
v 1.1 1 -1
v 1.1 1.1 -1
v 1.1 1.4 -1
v 1.1 1.7 -1
v 1.1 1.8 -1
v 1.1 1.9 -1
v 1.1 2.6 -1
v 1.1 2.8 -1
v 1.4 1.8 -1
v 1.4 1.9 -1
v 1.5 1.8 -1
v 1.5 1.9 -1
v 0.8 1.4 -1.1
v 0.8 1.5 -1.1
v 0.8 1.6 -1.1
v 0.8 1.7 -1.1
v 0.9 1.5 -1.1
v 0.9 1.6 -1.1
v 1 1.5 -1.1
v 1 1.6 -1.1
v 1.1 1.4 -1.1
v 1.1 1.5 -1.1
v 1.1 1.6 -1.1
v 1.1 1.7 -1.1
v 0.6 2 -1.3
v 0.6 2.6 -1.3
v 0.7 2.1 -1.3
v 0.7 2.5 -1.3
v 0.8 2.2 -1.3
v 0.8 2.4 -1.3
v 0.9 2.2 -1.3
v 0.9 2.4 -1.3
v 1 2.2 -1.3
v 1 2.4 -1.3
v 1.1 2.2 -1.3
v 1.1 2.4 -1.3
v 1.2 2.1 -1.3
v 1.2 2.5 -1.3
v 1.3 2 -1.3
v 1.3 2.6 -1.3
v 0.8 1 -0.9
v 0.9 1 -0.9
v 1 1 -0.9
v 1.1 1 -0.9
v 0.8 1 -1
v 0.9 1 -1
v 1 1 -1
v 1.1 1 -1
v 0.8 1.4 -0.8
v 1.1 1.4 -0.8
v 0.8 1.4 -0.9
v 0.9 1.4 -0.9
v 1 1.4 -0.9
v 1.1 1.4 -0.9
v 0.8 1.4 -1
v 0.9 1.4 -1
v 1 1.4 -1
v 1.1 1.4 -1
v 0.8 1.4 -1.1
v 1.1 1.4 -1.1
v 0.4 1.8 -0.9
v 0.5 1.8 -0.9
v 0.8 1.8 -0.9
v 1.1 1.8 -0.9
v 1.4 1.8 -0.9
v 1.5 1.8 -0.9
v 0.4 1.8 -1
v 0.5 1.8 -1
v 0.8 1.8 -1
v 1.1 1.8 -1
v 1.4 1.8 -1
v 1.5 1.8 -1
v 0.6 2 -0.6
v 1.3 2 -0.6
v 0.9 2 -0.9
v 1 2 -0.9
v 0.9 2 -1
v 1 2 -1
v 0.6 2 -1.3
v 1.3 2 -1.3
v 0.8 1.7 -0.8
v 1.1 1.7 -0.8
v 0.8 1.7 -0.9
v 1.1 1.7 -0.9
v 0.8 1.7 -1
v 1.1 1.7 -1
v 0.8 1.7 -1.1
v 1.1 1.7 -1.1
v 0.4 1.9 -0.9
v 0.5 1.9 -0.9
v 0.8 1.9 -0.9
v 0.9 1.9 -0.9
v 1 1.9 -0.9
v 1.1 1.9 -0.9
v 1.4 1.9 -0.9
v 1.5 1.9 -0.9
v 0.4 1.9 -1
v 0.5 1.9 -1
v 0.8 1.9 -1
v 0.9 1.9 -1
v 1 1.9 -1
v 1.1 1.9 -1
v 1.4 1.9 -1
v 1.5 1.9 -1
v 0.6 2.6 -0.6
v 1.3 2.6 -0.6
v 0.8 2.6 -0.7
v 1.1 2.6 -0.7
v 0.8 2.6 -1
v 1.1 2.6 -1
v 0.6 2.6 -1.3
v 1.3 2.6 -1.3
v 0.8 2.8 -0.7
v 1.1 2.8 -0.7
v 0.8 2.8 -1
v 1.1 2.8 -1

# faces
f 3/3/1 2/3/1 1/3/1
f 4/3/1 2/3/1 3/3/1
f 7/5/1 6/5/1 5/5/1
f 8/5/1 6/5/1 7/5/1
f 11/3/1 10/3/1 9/3/1
f 12/3/1 10/3/1 11/3/1
f 14/2/1 12/2/1 11/2/1
f 15/2/1 12/2/1 14/2/1
f 17/5/1 15/5/1 14/5/1
f 17/5/1 16/5/1 15/5/1
f 17/5/1 14/5/1 13/5/1
f 18/5/1 16/5/1 17/5/1
f 19/6/1 18/6/1 17/6/1
f 20/6/1 18/6/1 19/6/1
f 21/5/1 20/5/1 19/5/1
f 22/5/1 20/5/1 21/5/1
f 23/5/1 20/5/1 22/5/1
f 24/5/1 20/5/1 23/5/1
f 25/5/1 23/5/1 22/5/1
f 26/5/1 23/5/1 25/5/1
f 29/3/1 28/3/1 27/3/1
f 30/3/1 28/3/1 29/3/1
f 33/5/1 32/5/1 31/5/1
f 34/5/1 32/5/1 33/5/1
f 37/3/1 36/3/1 35/3/1
f 38/3/1 36/3/1 37/3/1
f 39/2/1 38/2/1 37/2/1
f 40/2/1 38/2/1 39/2/1
f 41/3/2 42/3/2 43/3/2
f 43/3/2 42/3/2 44/3/2
f 43/2/2 44/2/2 45/2/2
f 45/2/2 44/2/2 46/2/2
f 47/5/2 48/5/2 49/5/2
f 49/5/2 48/5/2 50/5/2
f 51/3/2 52/3/2 53/3/2
f 53/3/2 52/3/2 54/3/2
f 53/2/2 54/2/2 56/2/2
f 56/2/2 54/2/2 57/2/2
f 56/5/2 57/5/2 59/5/2
f 57/5/2 58/5/2 59/5/2
f 55/5/2 56/5/2 59/5/2
f 59/5/2 58/5/2 60/5/2
f 59/6/2 60/6/2 61/6/2
f 61/6/2 60/6/2 62/6/2
f 61/5/2 62/5/2 63/5/2
f 63/5/2 62/5/2 64/5/2
f 64/5/2 62/5/2 65/5/2
f 65/5/2 62/5/2 66/5/2
f 64/5/2 65/5/2 67/5/2
f 67/5/2 65/5/2 68/5/2
f 69/3/2 70/3/2 71/3/2
f 71/3/2 70/3/2 72/3/2
f 73/5/2 74/5/2 75/5/2
f 75/5/2 74/5/2 76/5/2
f 77/3/2 78/3/2 79/3/2
f 79/3/2 78/3/2 80/3/2
f 83/5/3 82/5/3 81/5/3
f 84/5/3 82/5/3 83/5/3
f 87/3/3 86/3/3 85/3/3
f 88/3/3 86/3/3 87/3/3
f 93/5/3 90/5/3 89/5/3
f 94/6/3 91/6/3 90/6/3
f 94/5/3 90/5/3 93/5/3
f 95/5/3 92/5/3 91/5/3
f 95/6/3 91/6/3 94/6/3
f 96/5/3 92/5/3 95/5/3
f 99/3/3 98/3/3 97/3/3
f 100/3/3 98/3/3 99/3/3
f 105/2/3 100/2/3 99/2/3
f 106/2/3 100/2/3 105/2/3
f 107/3/3 102/3/3 101/3/3
f 108/2/3 103/2/3 102/2/3
f 108/3/3 102/3/3 107/3/3
f 109/2/3 103/2/3 108/2/3
f 110/5/3 105/5/3 104/5/3
f 110/5/3 106/5/3 105/5/3
f 115/5/3 110/5/3 104/5/3
f 115/5/3 111/5/3 110/5/3
f 116/5/3 111/5/3 115/5/3
f 117/3/3 113/3/3 112/3/3
f 118/2/3 114/2/3 113/2/3
f 118/3/3 113/3/3 117/3/3
f 119/2/3 114/2/3 118/2/3
f 120/5/3 115/5/3 104/5/3
f 121/5/3 115/5/3 120/5/3
f 122/5/3 115/5/3 121/5/3
f 123/2/3 122/2/3 121/2/3
f 124/2/3 122/2/3 123/2/3
f 125/3/3 124/3/3 123/3/3
f 126/3/3 124/3/3 125/3/3
f 127/3/4 128/3/4 129/3/4
f 129/3/4 128/3/4 130/3/4
f 129/2/4 130/2/4 135/2/4
f 135/2/4 130/2/4 136/2/4
f 131/3/4 132/3/4 139/3/4
f 132/2/4 133/2/4 140/2/4
f 139/3/4 132/3/4 140/3/4
f 140/2/4 133/2/4 141/2/4
f 135/5/4 136/5/4 142/5/4
f 134/5/4 135/5/4 142/5/4
f 142/5/4 143/5/4 147/5/4
f 134/5/4 142/5/4 147/5/4
f 147/5/4 143/5/4 148/5/4
f 144/3/4 145/3/4 149/3/4
f 145/2/4 146/2/4 150/2/4
f 149/3/4 145/3/4 150/3/4
f 150/2/4 146/2/4 151/2/4
f 134/5/4 147/5/4 152/5/4
f 152/5/4 147/5/4 153/5/4
f 153/5/4 147/5/4 154/5/4
f 137/3/4 138/3/4 155/3/4
f 155/3/4 138/3/4 156/3/4
f 153/2/4 154/2/4 157/2/4
f 157/2/4 154/2/4 158/2/4
f 157/3/4 158/3/4 159/3/4
f 159/3/4 158/3/4 160/3/4
f 161/5/4 162/5/4 165/5/4
f 162/6/4 163/6/4 165/6/4
f 163/5/4 164/5/4 166/5/4
f 165/6/4 163/6/4 166/6/4
f 161/5/4 165/5/4 167/5/4
f 165/1/4 166/1/4 167/1/4
f 166/5/4 164/5/4 168/5/4
f 167/1/4 166/1/4 168/1/4
f 161/5/4 167/5/4 169/5/4
f 167/6/4 168/6/4 170/6/4
f 169/5/4 167/5/4 170/5/4
f 168/5/4 164/5/4 171/5/4
f 170/6/4 168/6/4 171/6/4
f 171/5/4 164/5/4 172/5/4
f 173/5/4 174/5/4 175/5/4
f 175/5/4 174/5/4 176/5/4
f 175/2/4 176/2/4 177/2/4
f 177/2/4 176/2/4 178/2/4
f 175/2/4 177/2/4 179/2/4
f 177/6/4 178/6/4 179/6/4
f 178/2/4 176/2/4 180/2/4
f 179/6/4 178/6/4 180/6/4
f 175/2/4 179/2/4 181/2/4
f 179/2/4 180/2/4 181/2/4
f 180/2/4 176/2/4 182/2/4
f 181/2/4 180/2/4 182/2/4
f 175/2/4 181/2/4 183/2/4
f 181/6/4 182/6/4 183/6/4
f 182/2/4 176/2/4 184/2/4
f 183/6/4 182/6/4 184/6/4
f 173/5/4 175/5/4 185/5/4
f 175/2/4 183/2/4 185/2/4
f 183/2/4 184/2/4 185/2/4
f 184/2/4 176/2/4 186/2/4
f 185/2/4 184/2/4 186/2/4
f 176/5/4 174/5/4 186/5/4
f 173/5/4 185/5/4 187/5/4
f 185/5/4 186/5/4 187/5/4
f 186/5/4 174/5/4 188/5/4
f 187/5/4 186/5/4 188/5/4
f 193/3/5 190/3/5 189/3/5
f 194/3/5 190/3/5 193/3/5
f 195/3/5 192/3/5 191/3/5
f 196/3/5 192/3/5 195/3/5
f 199/5/5 198/5/5 197/5/5
f 200/5/5 198/5/5 199/5/5
f 201/5/5 198/5/5 200/5/5
f 202/5/5 198/5/5 201/5/5
f 204/5/5 201/5/5 200/5/5
f 205/5/5 201/5/5 204/5/5
f 207/5/5 204/5/5 203/5/5
f 207/5/5 206/5/5 205/5/5
f 207/5/5 205/5/5 204/5/5
f 208/5/5 206/5/5 207/5/5
f 215/3/5 210/3/5 209/3/5
f 216/2/5 211/2/5 210/2/5
f 216/3/5 210/3/5 215/3/5
f 217/2/5 211/2/5 216/2/5
f 218/2/5 213/2/5 212/2/5
f 219/3/5 214/3/5 213/3/5
f 219/2/5 213/2/5 218/2/5
f 220/3/5 214/3/5 219/3/5
f 223/5/5 222/5/5 221/5/5
f 224/5/5 222/5/5 223/5/5
f 225/5/5 223/5/5 221/5/5
f 226/5/5 222/5/5 224/5/5
f 227/5/5 225/5/5 221/5/5
f 227/5/5 226/5/5 225/5/5
f 228/5/5 222/5/5 226/5/5
f 228/5/5 226/5/5 227/5/5
f 229/5/6 230/5/6 231/5/6
f 231/5/6 230/5/6 232/5/6
f 233/5/6 234/5/6 235/5/6
f 235/5/6 234/5/6 236/5/6
f 237/3/6 238/3/6 245/3/6
f 238/2/6 239/2/6 246/2/6
f 245/3/6 238/3/6 246/3/6
f 239/5/6 240/5/6 247/5/6
f 246/2/6 239/2/6 247/2/6
f 247/5/6 240/5/6 248/5/6
f 241/5/6 242/5/6 249/5/6
f 242/2/6 243/2/6 250/2/6
f 249/5/6 242/5/6 250/5/6
f 243/3/6 244/3/6 251/3/6
f 250/2/6 243/2/6 251/2/6
f 251/3/6 244/3/6 252/3/6
f 253/5/6 254/5/6 255/5/6
f 255/5/6 254/5/6 256/5/6
f 253/5/6 255/5/6 257/5/6
f 256/5/6 254/5/6 258/5/6
f 253/5/6 257/5/6 259/5/6
f 257/5/6 258/5/6 259/5/6
f 258/5/6 254/5/6 260/5/6
f 259/5/6 258/5/6 260/5/6
f 261/3/6 262/3/6 263/3/6
f 263/3/6 262/3/6 264/3/6
